<svg width="1363" height="163" viewBox="0 0 1363 163" fill="none" xmlns="http://www.w3.org/2000/svg">
<path d="M0 15C0 6.71573 6.71573 0 15 0H37V163H15C6.71573 163 0 156.284 0 148V15Z" fill="#424242"/>
<rect width="1097" height="163" transform="translate(37)" fill="#F0F0F0"/>
<path d="M99.7617 61H96.0469L96.0703 58.2578H99.7617C100.684 58.2578 101.461 58.0508 102.094 57.6367C102.727 57.2148 103.203 56.6016 103.523 55.7969C103.852 54.9922 104.016 54.0195 104.016 52.8789V52.0469C104.016 51.1719 103.922 50.4023 103.734 49.7383C103.555 49.0742 103.285 48.5156 102.926 48.0625C102.566 47.6094 102.125 47.2695 101.602 47.043C101.078 46.8086 100.477 46.6914 99.7969 46.6914H95.9766V43.9375H99.7969C100.938 43.9375 101.98 44.1328 102.926 44.5234C103.879 44.9062 104.703 45.457 105.398 46.1758C106.094 46.8945 106.629 47.7539 107.004 48.7539C107.387 49.7461 107.578 50.8516 107.578 52.0703V52.8789C107.578 54.0898 107.387 55.1953 107.004 56.1953C106.629 57.1953 106.094 58.0547 105.398 58.7734C104.711 59.4844 103.887 60.0352 102.926 60.4258C101.973 60.8086 100.918 61 99.7617 61ZM98.0391 43.9375V61H94.5234V43.9375H98.0391ZM113.484 48.3203V61H110.098V48.3203H113.484ZM109.887 45.0156C109.887 44.5234 110.059 44.1172 110.402 43.7969C110.746 43.4766 111.207 43.3164 111.785 43.3164C112.355 43.3164 112.812 43.4766 113.156 43.7969C113.508 44.1172 113.684 44.5234 113.684 45.0156C113.684 45.5078 113.508 45.9141 113.156 46.2344C112.812 46.5547 112.355 46.7148 111.785 46.7148C111.207 46.7148 110.746 46.5547 110.402 46.2344C110.059 45.9141 109.887 45.5078 109.887 45.0156ZM121.512 58.5977C121.926 58.5977 122.293 58.5195 122.613 58.3633C122.934 58.1992 123.184 57.9727 123.363 57.6836C123.551 57.3867 123.648 57.0391 123.656 56.6406H126.832C126.824 57.5312 126.586 58.3242 126.117 59.0195C125.648 59.707 125.02 60.25 124.23 60.6484C123.441 61.0391 122.559 61.2344 121.582 61.2344C120.598 61.2344 119.738 61.0703 119.004 60.7422C118.277 60.4141 117.672 59.9609 117.188 59.3828C116.703 58.7969 116.34 58.1172 116.098 57.3438C115.855 56.5625 115.734 55.7266 115.734 54.8359V54.4961C115.734 53.5977 115.855 52.7617 116.098 51.9883C116.34 51.207 116.703 50.5273 117.188 49.9492C117.672 49.3633 118.277 48.9062 119.004 48.5781C119.73 48.25 120.582 48.0859 121.559 48.0859C122.598 48.0859 123.508 48.2852 124.289 48.6836C125.078 49.082 125.695 49.6523 126.141 50.3945C126.594 51.1289 126.824 52 126.832 53.0078H123.656C123.648 52.5859 123.559 52.2031 123.387 51.8594C123.223 51.5156 122.98 51.2422 122.66 51.0391C122.348 50.8281 121.961 50.7227 121.5 50.7227C121.008 50.7227 120.605 50.8281 120.293 51.0391C119.98 51.2422 119.738 51.5234 119.566 51.8828C119.395 52.2344 119.273 52.6367 119.203 53.0898C119.141 53.5352 119.109 54.0039 119.109 54.4961V54.8359C119.109 55.3281 119.141 55.8008 119.203 56.2539C119.266 56.707 119.383 57.1094 119.555 57.4609C119.734 57.8125 119.98 58.0898 120.293 58.293C120.605 58.4961 121.012 58.5977 121.512 58.5977ZM134.625 61.2344C133.641 61.2344 132.758 61.0781 131.977 60.7656C131.195 60.4453 130.531 60.0039 129.984 59.4414C129.445 58.8789 129.031 58.2266 128.742 57.4844C128.453 56.7344 128.309 55.9375 128.309 55.0938V54.625C128.309 53.6641 128.445 52.7852 128.719 51.9883C128.992 51.1914 129.383 50.5 129.891 49.9141C130.406 49.3281 131.031 48.8789 131.766 48.5664C132.5 48.2461 133.328 48.0859 134.25 48.0859C135.148 48.0859 135.945 48.2344 136.641 48.5312C137.336 48.8281 137.918 49.25 138.387 49.7969C138.863 50.3438 139.223 51 139.465 51.7656C139.707 52.5234 139.828 53.3672 139.828 54.2969V55.7031H129.75V53.4531H136.512V53.1953C136.512 52.7266 136.426 52.3086 136.254 51.9414C136.09 51.5664 135.84 51.2695 135.504 51.0508C135.168 50.832 134.738 50.7227 134.215 50.7227C133.77 50.7227 133.387 50.8203 133.066 51.0156C132.746 51.2109 132.484 51.4844 132.281 51.8359C132.086 52.1875 131.938 52.6016 131.836 53.0781C131.742 53.5469 131.695 54.0625 131.695 54.625V55.0938C131.695 55.6016 131.766 56.0703 131.906 56.5C132.055 56.9297 132.262 57.3008 132.527 57.6133C132.801 57.9258 133.129 58.168 133.512 58.3398C133.902 58.5117 134.344 58.5977 134.836 58.5977C135.445 58.5977 136.012 58.4805 136.535 58.2461C137.066 58.0039 137.523 57.6406 137.906 57.1562L139.547 58.9375C139.281 59.3203 138.918 59.6875 138.457 60.0391C138.004 60.3906 137.457 60.6797 136.816 60.9062C136.176 61.125 135.445 61.2344 134.625 61.2344ZM148.406 52.3516V55H141.785V52.3516H148.406ZM159.246 48.3203H162.305V60.5781C162.305 61.7344 162.047 62.7148 161.531 63.5195C161.023 64.332 160.312 64.9453 159.398 65.3594C158.484 65.7812 157.422 65.9922 156.211 65.9922C155.68 65.9922 155.117 65.9219 154.523 65.7812C153.938 65.6406 153.375 65.4219 152.836 65.125C152.305 64.8281 151.859 64.4531 151.5 64L152.988 62.0078C153.379 62.4609 153.832 62.8125 154.348 63.0625C154.863 63.3203 155.434 63.4492 156.059 63.4492C156.668 63.4492 157.184 63.3359 157.605 63.1094C158.027 62.8906 158.352 62.5664 158.578 62.1367C158.805 61.7148 158.918 61.2031 158.918 60.6016V51.25L159.246 48.3203ZM150.715 54.8125V54.5664C150.715 53.5977 150.832 52.7188 151.066 51.9297C151.309 51.1328 151.648 50.4492 152.086 49.8789C152.531 49.3086 153.07 48.8672 153.703 48.5547C154.336 48.2422 155.051 48.0859 155.848 48.0859C156.691 48.0859 157.398 48.2422 157.969 48.5547C158.539 48.8672 159.008 49.3125 159.375 49.8906C159.742 50.4609 160.027 51.1367 160.23 51.918C160.441 52.6914 160.605 53.5391 160.723 54.4609V55C160.605 55.8828 160.43 56.7031 160.195 57.4609C159.961 58.2188 159.652 58.8828 159.27 59.4531C158.887 60.0156 158.41 60.4531 157.84 60.7656C157.277 61.0781 156.605 61.2344 155.824 61.2344C155.043 61.2344 154.336 61.0742 153.703 60.7539C153.078 60.4336 152.543 59.9844 152.098 59.4062C151.652 58.8281 151.309 58.1484 151.066 57.3672C150.832 56.5859 150.715 55.7344 150.715 54.8125ZM154.09 54.5664V54.8125C154.09 55.3359 154.141 55.8242 154.242 56.2773C154.344 56.7305 154.5 57.1328 154.711 57.4844C154.93 57.8281 155.199 58.0977 155.52 58.293C155.848 58.4805 156.234 58.5742 156.68 58.5742C157.297 58.5742 157.801 58.4453 158.191 58.1875C158.582 57.9219 158.875 57.5586 159.07 57.0977C159.266 56.6367 159.379 56.1055 159.41 55.5039V53.9688C159.395 53.4766 159.328 53.0352 159.211 52.6445C159.094 52.2461 158.93 51.9062 158.719 51.625C158.508 51.3438 158.234 51.125 157.898 50.9688C157.562 50.8125 157.164 50.7344 156.703 50.7344C156.258 50.7344 155.871 50.8359 155.543 51.0391C155.223 51.2344 154.953 51.5039 154.734 51.8477C154.523 52.1914 154.363 52.5977 154.254 53.0664C154.145 53.5273 154.09 54.0273 154.09 54.5664ZM171.773 58.1406V52.4922C171.773 52.0859 171.707 51.7383 171.574 51.4492C171.441 51.1523 171.234 50.9219 170.953 50.7578C170.68 50.5938 170.324 50.5117 169.887 50.5117C169.512 50.5117 169.188 50.5781 168.914 50.7109C168.641 50.8359 168.43 51.0195 168.281 51.2617C168.133 51.4961 168.059 51.7734 168.059 52.0938H164.684C164.684 51.5547 164.809 51.043 165.059 50.5586C165.309 50.0742 165.672 49.6484 166.148 49.2812C166.625 48.9062 167.191 48.6133 167.848 48.4023C168.512 48.1914 169.254 48.0859 170.074 48.0859C171.059 48.0859 171.934 48.25 172.699 48.5781C173.465 48.9062 174.066 49.3984 174.504 50.0547C174.949 50.7109 175.172 51.5312 175.172 52.5156V57.9414C175.172 58.6367 175.215 59.207 175.301 59.6523C175.387 60.0898 175.512 60.4727 175.676 60.8008V61H172.266C172.102 60.6562 171.977 60.2266 171.891 59.7109C171.812 59.1875 171.773 58.6641 171.773 58.1406ZM172.219 53.2773L172.242 55.1875H170.355C169.91 55.1875 169.523 55.2383 169.195 55.3398C168.867 55.4414 168.598 55.5859 168.387 55.7734C168.176 55.9531 168.02 56.1641 167.918 56.4062C167.824 56.6484 167.777 56.9141 167.777 57.2031C167.777 57.4922 167.844 57.7539 167.977 57.9883C168.109 58.2148 168.301 58.3945 168.551 58.5273C168.801 58.6523 169.094 58.7148 169.43 58.7148C169.938 58.7148 170.379 58.6133 170.754 58.4102C171.129 58.207 171.418 57.957 171.621 57.6602C171.832 57.3633 171.941 57.082 171.949 56.8164L172.84 58.2461C172.715 58.5664 172.543 58.8984 172.324 59.2422C172.113 59.5859 171.844 59.9102 171.516 60.2148C171.188 60.5117 170.793 60.7578 170.332 60.9531C169.871 61.1406 169.324 61.2344 168.691 61.2344C167.887 61.2344 167.156 61.0742 166.5 60.7539C165.852 60.4258 165.336 59.9766 164.953 59.4062C164.578 58.8281 164.391 58.1719 164.391 57.4375C164.391 56.7734 164.516 56.1836 164.766 55.668C165.016 55.1523 165.383 54.7188 165.867 54.3672C166.359 54.0078 166.973 53.7383 167.707 53.5586C168.441 53.3711 169.293 53.2773 170.262 53.2773H172.219ZM181.148 50.9453V61H177.762V48.3203H180.938L181.148 50.9453ZM180.68 54.2148H179.742C179.742 53.332 179.848 52.5195 180.059 51.7773C180.277 51.0273 180.594 50.3789 181.008 49.832C181.43 49.2773 181.949 48.8477 182.566 48.543C183.184 48.2383 183.898 48.0859 184.711 48.0859C185.273 48.0859 185.789 48.1719 186.258 48.3438C186.727 48.5078 187.129 48.7695 187.465 49.1289C187.809 49.4805 188.074 49.9414 188.262 50.5117C188.449 51.0742 188.543 51.75 188.543 52.5391V61H185.168V52.9141C185.168 52.3359 185.09 51.8906 184.934 51.5781C184.777 51.2656 184.555 51.0469 184.266 50.9219C183.984 50.7969 183.645 50.7344 183.246 50.7344C182.809 50.7344 182.426 50.8242 182.098 51.0039C181.777 51.1836 181.512 51.4336 181.301 51.7539C181.09 52.0664 180.934 52.4336 180.832 52.8555C180.73 53.2773 180.68 53.7305 180.68 54.2148ZM188.227 53.8281L187.02 53.9805C187.02 53.1523 187.121 52.3828 187.324 51.6719C187.535 50.9609 187.844 50.3359 188.25 49.7969C188.664 49.2578 189.176 48.8398 189.785 48.543C190.395 48.2383 191.098 48.0859 191.895 48.0859C192.504 48.0859 193.059 48.1758 193.559 48.3555C194.059 48.5273 194.484 48.8047 194.836 49.1875C195.195 49.5625 195.469 50.0547 195.656 50.6641C195.852 51.2734 195.949 52.0195 195.949 52.9023V61H192.562V52.9023C192.562 52.3164 192.484 51.8711 192.328 51.5664C192.18 51.2539 191.961 51.0391 191.672 50.9219C191.391 50.7969 191.055 50.7344 190.664 50.7344C190.258 50.7344 189.902 50.8164 189.598 50.9805C189.293 51.1367 189.039 51.3555 188.836 51.6367C188.633 51.918 188.48 52.2461 188.379 52.6211C188.277 52.9883 188.227 53.3906 188.227 53.8281ZM204.398 61.2344C203.414 61.2344 202.531 61.0781 201.75 60.7656C200.969 60.4453 200.305 60.0039 199.758 59.4414C199.219 58.8789 198.805 58.2266 198.516 57.4844C198.227 56.7344 198.082 55.9375 198.082 55.0938V54.625C198.082 53.6641 198.219 52.7852 198.492 51.9883C198.766 51.1914 199.156 50.5 199.664 49.9141C200.18 49.3281 200.805 48.8789 201.539 48.5664C202.273 48.2461 203.102 48.0859 204.023 48.0859C204.922 48.0859 205.719 48.2344 206.414 48.5312C207.109 48.8281 207.691 49.25 208.16 49.7969C208.637 50.3438 208.996 51 209.238 51.7656C209.48 52.5234 209.602 53.3672 209.602 54.2969V55.7031H199.523V53.4531H206.285V53.1953C206.285 52.7266 206.199 52.3086 206.027 51.9414C205.863 51.5664 205.613 51.2695 205.277 51.0508C204.941 50.832 204.512 50.7227 203.988 50.7227C203.543 50.7227 203.16 50.8203 202.84 51.0156C202.52 51.2109 202.258 51.4844 202.055 51.8359C201.859 52.1875 201.711 52.6016 201.609 53.0781C201.516 53.5469 201.469 54.0625 201.469 54.625V55.0938C201.469 55.6016 201.539 56.0703 201.68 56.5C201.828 56.9297 202.035 57.3008 202.301 57.6133C202.574 57.9258 202.902 58.168 203.285 58.3398C203.676 58.5117 204.117 58.5977 204.609 58.5977C205.219 58.5977 205.785 58.4805 206.309 58.2461C206.84 58.0039 207.297 57.6406 207.68 57.1562L209.32 58.9375C209.055 59.3203 208.691 59.6875 208.23 60.0391C207.777 60.3906 207.23 60.6797 206.59 60.9062C205.949 61.125 205.219 61.2344 204.398 61.2344Z" fill="#888888"/>
<path d="M113.18 109.93C113.18 109.398 113.102 108.922 112.945 108.5C112.789 108.062 112.5 107.656 112.078 107.281C111.656 106.906 111.047 106.531 110.25 106.156C109.469 105.766 108.438 105.359 107.156 104.938C105.656 104.438 104.211 103.875 102.82 103.25C101.43 102.609 100.188 101.867 99.0938 101.023C98 100.164 97.1328 99.1641 96.4922 98.0234C95.8516 96.8672 95.5312 95.5234 95.5312 93.9922C95.5312 92.5234 95.8594 91.2031 96.5156 90.0312C97.1719 88.8438 98.0859 87.8359 99.2578 87.0078C100.445 86.1641 101.836 85.5234 103.43 85.0859C105.023 84.6328 106.766 84.4062 108.656 84.4062C111.156 84.4062 113.359 84.8438 115.266 85.7188C117.188 86.5781 118.688 87.8047 119.766 89.3984C120.859 90.9766 121.406 92.8438 121.406 95H113.227C113.227 94.1406 113.047 93.3828 112.688 92.7266C112.344 92.0703 111.82 91.5547 111.117 91.1797C110.414 90.8047 109.531 90.6172 108.469 90.6172C107.438 90.6172 106.57 90.7734 105.867 91.0859C105.164 91.3984 104.633 91.8203 104.273 92.3516C103.914 92.8672 103.734 93.4375 103.734 94.0625C103.734 94.5781 103.875 95.0469 104.156 95.4688C104.453 95.875 104.867 96.2578 105.398 96.6172C105.945 96.9766 106.602 97.3203 107.367 97.6484C108.148 97.9766 109.023 98.2969 109.992 98.6094C111.805 99.1875 113.414 99.8359 114.82 100.555C116.242 101.258 117.438 102.062 118.406 102.969C119.391 103.859 120.133 104.875 120.633 106.016C121.148 107.156 121.406 108.445 121.406 109.883C121.406 111.414 121.109 112.773 120.516 113.961C119.922 115.148 119.07 116.156 117.961 116.984C116.852 117.797 115.523 118.414 113.977 118.836C112.43 119.258 110.703 119.469 108.797 119.469C107.047 119.469 105.32 119.25 103.617 118.812C101.93 118.359 100.398 117.672 99.0234 116.75C97.6484 115.812 96.5469 114.617 95.7188 113.164C94.9062 111.695 94.5 109.953 94.5 107.938H102.75C102.75 108.938 102.883 109.781 103.148 110.469C103.414 111.156 103.805 111.711 104.32 112.133C104.836 112.539 105.469 112.836 106.219 113.023C106.969 113.195 107.828 113.281 108.797 113.281C109.844 113.281 110.688 113.133 111.328 112.836C111.969 112.523 112.438 112.117 112.734 111.617C113.031 111.102 113.18 110.539 113.18 109.93ZM133.031 99.0547V119H125.133V93.6406H132.539L133.031 99.0547ZM132.094 105.453L130.242 105.5C130.242 103.562 130.477 101.836 130.945 100.32C131.414 98.7891 132.078 97.4922 132.938 96.4297C133.797 95.3672 134.82 94.5625 136.008 94.0156C137.211 93.4531 138.547 93.1719 140.016 93.1719C141.188 93.1719 142.258 93.3438 143.227 93.6875C144.211 94.0312 145.055 94.5859 145.758 95.3516C146.477 96.1172 147.023 97.1328 147.398 98.3984C147.789 99.6484 147.984 101.195 147.984 103.039V119H140.039V103.016C140.039 102 139.898 101.227 139.617 100.695C139.336 100.148 138.93 99.7734 138.398 99.5703C137.867 99.3672 137.219 99.2656 136.453 99.2656C135.641 99.2656 134.953 99.4219 134.391 99.7344C133.828 100.047 133.375 100.484 133.031 101.047C132.703 101.594 132.461 102.242 132.305 102.992C132.164 103.742 132.094 104.562 132.094 105.453ZM165.539 112.625V102.172C165.539 101.453 165.438 100.836 165.234 100.32C165.031 99.8047 164.711 99.4062 164.273 99.125C163.836 98.8281 163.25 98.6797 162.516 98.6797C161.922 98.6797 161.414 98.7812 160.992 98.9844C160.57 99.1875 160.25 99.4922 160.031 99.8984C159.812 100.305 159.703 100.82 159.703 101.445H151.805C151.805 100.273 152.062 99.1875 152.578 98.1875C153.109 97.1719 153.859 96.2891 154.828 95.5391C155.812 94.7891 156.984 94.2109 158.344 93.8047C159.719 93.3828 161.25 93.1719 162.938 93.1719C164.953 93.1719 166.75 93.5078 168.328 94.1797C169.922 94.8516 171.18 95.8594 172.102 97.2031C173.023 98.5312 173.484 100.203 173.484 102.219V112.602C173.484 114.258 173.578 115.516 173.766 116.375C173.953 117.219 174.219 117.961 174.562 118.602V119H166.641C166.266 118.219 165.984 117.266 165.797 116.141C165.625 115 165.539 113.828 165.539 112.625ZM166.5 103.508L166.547 107.727H163.055C162.32 107.727 161.695 107.828 161.18 108.031C160.68 108.234 160.273 108.516 159.961 108.875C159.664 109.219 159.445 109.609 159.305 110.047C159.18 110.484 159.117 110.945 159.117 111.43C159.117 111.898 159.227 112.32 159.445 112.695C159.68 113.055 159.992 113.336 160.383 113.539C160.773 113.742 161.211 113.844 161.695 113.844C162.57 113.844 163.312 113.68 163.922 113.352C164.547 113.008 165.023 112.594 165.352 112.109C165.68 111.625 165.844 111.172 165.844 110.75L167.578 113.984C167.266 114.609 166.906 115.242 166.5 115.883C166.109 116.523 165.617 117.117 165.023 117.664C164.445 118.195 163.734 118.633 162.891 118.977C162.047 119.305 161.023 119.469 159.82 119.469C158.258 119.469 156.82 119.148 155.508 118.508C154.211 117.867 153.172 116.977 152.391 115.836C151.609 114.68 151.219 113.352 151.219 111.852C151.219 110.539 151.453 109.367 151.922 108.336C152.406 107.305 153.133 106.43 154.102 105.711C155.07 104.992 156.305 104.445 157.805 104.07C159.305 103.695 161.07 103.508 163.102 103.508H166.5ZM185.836 98.5156V128.75H177.938V93.6406H185.297L185.836 98.5156ZM201.398 106.016V106.508C201.398 108.352 201.188 110.062 200.766 111.641C200.344 113.219 199.719 114.594 198.891 115.766C198.062 116.938 197.031 117.852 195.797 118.508C194.578 119.148 193.164 119.469 191.555 119.469C190.039 119.469 188.734 119.133 187.641 118.461C186.547 117.789 185.633 116.859 184.898 115.672C184.164 114.484 183.57 113.125 183.117 111.594C182.664 110.062 182.305 108.445 182.039 106.742V106.109C182.305 104.281 182.664 102.586 183.117 101.023C183.57 99.4453 184.164 98.0703 184.898 96.8984C185.633 95.7266 186.539 94.8125 187.617 94.1562C188.711 93.5 190.016 93.1719 191.531 93.1719C193.141 93.1719 194.555 93.4766 195.773 94.0859C197.008 94.6953 198.039 95.5703 198.867 96.7109C199.711 97.8359 200.344 99.1875 200.766 100.766C201.188 102.344 201.398 104.094 201.398 106.016ZM193.5 106.508V106.016C193.5 105.031 193.43 104.133 193.289 103.32C193.148 102.492 192.922 101.773 192.609 101.164C192.312 100.555 191.914 100.086 191.414 99.7578C190.914 99.4297 190.297 99.2656 189.562 99.2656C188.719 99.2656 188.008 99.3984 187.43 99.6641C186.867 99.9141 186.414 100.305 186.07 100.836C185.742 101.352 185.508 102 185.367 102.781C185.242 103.547 185.188 104.445 185.203 105.477V107.398C185.172 108.586 185.289 109.633 185.555 110.539C185.82 111.43 186.281 112.125 186.938 112.625C187.594 113.125 188.484 113.375 189.609 113.375C190.359 113.375 190.984 113.203 191.484 112.859C191.984 112.5 192.383 112.008 192.68 111.383C192.977 110.742 193.188 110.008 193.312 109.18C193.438 108.352 193.5 107.461 193.5 106.508ZM218.203 111.875C218.203 111.438 218.055 111.062 217.758 110.75C217.477 110.422 216.977 110.125 216.258 109.859C215.539 109.578 214.531 109.297 213.234 109.016C212 108.75 210.836 108.398 209.742 107.961C208.664 107.523 207.719 106.992 206.906 106.367C206.094 105.742 205.453 105 204.984 104.141C204.531 103.281 204.305 102.297 204.305 101.188C204.305 100.109 204.531 99.0938 204.984 98.1406C205.453 97.1719 206.133 96.3203 207.023 95.5859C207.93 94.8359 209.031 94.25 210.328 93.8281C211.625 93.3906 213.102 93.1719 214.758 93.1719C217.039 93.1719 219.008 93.5234 220.664 94.2266C222.32 94.9141 223.594 95.8828 224.484 97.1328C225.391 98.3672 225.844 99.7969 225.844 101.422H217.945C217.945 100.781 217.836 100.234 217.617 99.7812C217.414 99.3281 217.078 98.9844 216.609 98.75C216.141 98.5 215.516 98.375 214.734 98.375C214.188 98.375 213.688 98.4766 213.234 98.6797C212.797 98.8828 212.445 99.1641 212.18 99.5234C211.914 99.8828 211.781 100.305 211.781 100.789C211.781 101.133 211.859 101.445 212.016 101.727C212.188 101.992 212.445 102.242 212.789 102.477C213.133 102.695 213.57 102.898 214.102 103.086C214.633 103.258 215.273 103.414 216.023 103.555C217.727 103.867 219.32 104.312 220.805 104.891C222.289 105.469 223.492 106.289 224.414 107.352C225.352 108.414 225.82 109.844 225.82 111.641C225.82 112.766 225.562 113.805 225.047 114.758C224.531 115.695 223.789 116.523 222.82 117.242C221.852 117.945 220.688 118.492 219.328 118.883C217.969 119.273 216.438 119.469 214.734 119.469C212.312 119.469 210.266 119.039 208.594 118.18C206.922 117.305 205.656 116.211 204.797 114.898C203.953 113.57 203.531 112.227 203.531 110.867H210.891C210.922 111.648 211.109 112.289 211.453 112.789C211.812 113.289 212.289 113.656 212.883 113.891C213.477 114.125 214.164 114.242 214.945 114.242C215.664 114.242 216.258 114.141 216.727 113.938C217.211 113.734 217.578 113.461 217.828 113.117C218.078 112.758 218.203 112.344 218.203 111.875ZM237.258 83V119H229.359V83H237.258ZM236.32 105.453L234.469 105.5C234.469 103.719 234.688 102.078 235.125 100.578C235.562 99.0781 236.188 97.7734 237 96.6641C237.812 95.5547 238.789 94.6953 239.93 94.0859C241.07 93.4766 242.336 93.1719 243.727 93.1719C244.977 93.1719 246.117 93.3516 247.148 93.7109C248.195 94.0703 249.094 94.6484 249.844 95.4453C250.609 96.2422 251.195 97.2812 251.602 98.5625C252.023 99.8438 252.234 101.406 252.234 103.25V119H244.289V103.203C244.289 102.172 244.141 101.375 243.844 100.812C243.562 100.234 243.156 99.8359 242.625 99.6172C242.094 99.3828 241.445 99.2656 240.68 99.2656C239.758 99.2656 239.008 99.4219 238.43 99.7344C237.852 100.047 237.406 100.484 237.094 101.047C236.797 101.594 236.594 102.242 236.484 102.992C236.375 103.742 236.32 104.562 236.32 105.453ZM255.633 106.578V106.086C255.633 104.227 255.898 102.516 256.43 100.953C256.961 99.375 257.742 98.0078 258.773 96.8516C259.805 95.6953 261.078 94.7969 262.594 94.1562C264.109 93.5 265.859 93.1719 267.844 93.1719C269.844 93.1719 271.602 93.5 273.117 94.1562C274.648 94.7969 275.93 95.6953 276.961 96.8516C277.992 98.0078 278.773 99.375 279.305 100.953C279.836 102.516 280.102 104.227 280.102 106.086V106.578C280.102 108.422 279.836 110.133 279.305 111.711C278.773 113.273 277.992 114.641 276.961 115.812C275.93 116.969 274.656 117.867 273.141 118.508C271.625 119.148 269.875 119.469 267.891 119.469C265.906 119.469 264.148 119.148 262.617 118.508C261.086 117.867 259.805 116.969 258.773 115.812C257.742 114.641 256.961 113.273 256.43 111.711C255.898 110.133 255.633 108.422 255.633 106.578ZM263.531 106.086V106.578C263.531 107.531 263.602 108.422 263.742 109.25C263.883 110.078 264.117 110.805 264.445 111.43C264.773 112.039 265.219 112.516 265.781 112.859C266.344 113.203 267.047 113.375 267.891 113.375C268.719 113.375 269.406 113.203 269.953 112.859C270.516 112.516 270.961 112.039 271.289 111.43C271.617 110.805 271.852 110.078 271.992 109.25C272.133 108.422 272.203 107.531 272.203 106.578V106.086C272.203 105.164 272.133 104.297 271.992 103.484C271.852 102.656 271.617 101.93 271.289 101.305C270.961 100.664 270.516 100.164 269.953 99.8047C269.391 99.4453 268.688 99.2656 267.844 99.2656C267.016 99.2656 266.32 99.4453 265.758 99.8047C265.211 100.164 264.773 100.664 264.445 101.305C264.117 101.93 263.883 102.656 263.742 103.484C263.602 104.297 263.531 105.164 263.531 106.086ZM296.977 93.6406V99.125H281.695V93.6406H296.977ZM284.906 87.3359H292.805V110.727C292.805 111.398 292.883 111.922 293.039 112.297C293.195 112.656 293.461 112.914 293.836 113.07C294.227 113.211 294.742 113.281 295.383 113.281C295.836 113.281 296.211 113.273 296.508 113.258C296.805 113.227 297.086 113.188 297.352 113.141V118.789C296.68 119.008 295.977 119.172 295.242 119.281C294.508 119.406 293.727 119.469 292.898 119.469C291.211 119.469 289.766 119.203 288.562 118.672C287.375 118.141 286.469 117.305 285.844 116.164C285.219 115.023 284.906 113.539 284.906 111.711V87.3359ZM313.406 111.875C313.406 111.438 313.258 111.062 312.961 110.75C312.68 110.422 312.18 110.125 311.461 109.859C310.742 109.578 309.734 109.297 308.438 109.016C307.203 108.75 306.039 108.398 304.945 107.961C303.867 107.523 302.922 106.992 302.109 106.367C301.297 105.742 300.656 105 300.188 104.141C299.734 103.281 299.508 102.297 299.508 101.188C299.508 100.109 299.734 99.0938 300.188 98.1406C300.656 97.1719 301.336 96.3203 302.227 95.5859C303.133 94.8359 304.234 94.25 305.531 93.8281C306.828 93.3906 308.305 93.1719 309.961 93.1719C312.242 93.1719 314.211 93.5234 315.867 94.2266C317.523 94.9141 318.797 95.8828 319.688 97.1328C320.594 98.3672 321.047 99.7969 321.047 101.422H313.148C313.148 100.781 313.039 100.234 312.82 99.7812C312.617 99.3281 312.281 98.9844 311.812 98.75C311.344 98.5 310.719 98.375 309.938 98.375C309.391 98.375 308.891 98.4766 308.438 98.6797C308 98.8828 307.648 99.1641 307.383 99.5234C307.117 99.8828 306.984 100.305 306.984 100.789C306.984 101.133 307.062 101.445 307.219 101.727C307.391 101.992 307.648 102.242 307.992 102.477C308.336 102.695 308.773 102.898 309.305 103.086C309.836 103.258 310.477 103.414 311.227 103.555C312.93 103.867 314.523 104.312 316.008 104.891C317.492 105.469 318.695 106.289 319.617 107.352C320.555 108.414 321.023 109.844 321.023 111.641C321.023 112.766 320.766 113.805 320.25 114.758C319.734 115.695 318.992 116.523 318.023 117.242C317.055 117.945 315.891 118.492 314.531 118.883C313.172 119.273 311.641 119.469 309.938 119.469C307.516 119.469 305.469 119.039 303.797 118.18C302.125 117.305 300.859 116.211 300 114.898C299.156 113.57 298.734 112.227 298.734 110.867H306.094C306.125 111.648 306.312 112.289 306.656 112.789C307.016 113.289 307.492 113.656 308.086 113.891C308.68 114.125 309.367 114.242 310.148 114.242C310.867 114.242 311.461 114.141 311.93 113.938C312.414 113.734 312.781 113.461 313.031 113.117C313.281 112.758 313.406 112.344 313.406 111.875Z" fill="black"/>
<path d="M1134 0H1348C1356.28 0 1363 6.71573 1363 15V148C1363 156.284 1356.28 163 1348 163H1134V0Z" fill="#EB4D4D"/>
<path fill-rule="evenodd" clip-rule="evenodd" d="M1202.75 46.5018C1202.75 45.3973 1203.65 44.5018 1204.75 44.5018H1292.25C1293.35 44.5018 1294.25 45.3973 1294.25 46.5018V116.498C1294.25 117.603 1293.35 118.498 1292.25 118.498H1204.75C1203.65 118.498 1202.75 117.603 1202.75 116.498V46.5018ZM1206.75 48.5018V52.9963H1290.25V48.5018H1206.75ZM1290.25 56.9963H1235.19V114.498H1290.25V56.9963ZM1231.19 114.498V56.9963H1206.75V114.498H1231.19Z" fill="white"/>
<path fill-rule="evenodd" clip-rule="evenodd" d="M1209.72 62.3022C1209.72 61.1976 1210.62 60.3022 1211.72 60.3022H1225.72C1226.83 60.3022 1227.72 61.1976 1227.72 62.3022V81.6974C1227.72 82.802 1226.83 83.6974 1225.72 83.6974H1211.72C1210.62 83.6974 1209.72 82.802 1209.72 81.6974V62.3022ZM1213.72 64.3022V79.6974H1223.72V64.3022H1213.72ZM1239.33 63.1982C1239.33 62.0936 1240.22 61.1982 1241.33 61.1982H1284.25C1285.36 61.1982 1286.25 62.0936 1286.25 63.1982V109.407C1286.25 110.511 1285.36 111.407 1284.25 111.407H1241.33C1240.22 111.407 1239.33 110.511 1239.33 109.407V63.1982ZM1243.33 65.1982V107.407H1282.25V65.1982H1243.33ZM1209.56 93.4381C1209.56 92.3336 1210.46 91.4381 1211.56 91.4381H1220.48C1221.59 91.4381 1222.48 92.3336 1222.48 93.4381C1222.48 94.5427 1221.59 95.4381 1220.48 95.4381H1211.56C1210.46 95.4381 1209.56 94.5427 1209.56 93.4381ZM1209.56 100.438C1209.56 99.3335 1210.46 98.4381 1211.56 98.4381H1226.1C1227.21 98.4381 1228.1 99.3335 1228.1 100.438C1228.1 101.543 1227.21 102.438 1226.1 102.438H1211.56C1210.46 102.438 1209.56 101.543 1209.56 100.438ZM1209.56 107.438C1209.56 106.334 1210.46 105.438 1211.56 105.438H1220.48C1221.59 105.438 1222.48 106.334 1222.48 107.438C1222.48 108.543 1221.59 109.438 1220.48 109.438H1211.56C1210.46 109.438 1209.56 108.543 1209.56 107.438Z" fill="white"/>
</svg>
